<svg width="50" height="50" viewBox="0 0 50 50" fill="none" xmlns="http://www.w3.org/2000/svg">
<g clip-path="url(#clip0_220_276)">
<path d="M23.2143 0H37.0647C38.4821 0 39.8438 0.498047 40.8482 1.37695L48.4263 8.00781C49.4308 8.88672 50 10.0781 50 11.3184V32.8125C50 35.4004 47.6004 37.5 44.6429 37.5H23.2143C20.2567 37.5 17.8571 35.4004 17.8571 32.8125V4.6875C17.8571 2.09961 20.2567 0 23.2143 0ZM5.35714 12.5H14.2857V18.75H7.14286V43.75H28.5714V40.625H35.7143V45.3125C35.7143 47.9004 33.3147 50 30.3571 50H5.35714C2.39955 50 0 47.9004 0 45.3125V17.1875C0 14.5996 2.39955 12.5 5.35714 12.5Z" fill="black"/>
</g>
<defs>
<clipPath id="clip0_220_276">
<rect width="50" height="50" fill="white"/>
</clipPath>
</defs>
</svg>
