<svg width="44" height="39" viewBox="0 0 44 39" fill="none" xmlns="http://www.w3.org/2000/svg">
<path d="M4.125 4.875C1.84766 4.875 0 6.5127 0 8.53125C0 9.68145 0.610156 10.7631 1.65 11.4562L20.35 23.8875C21.3297 24.535 22.6703 24.535 23.65 23.8875L42.35 11.4562C43.3898 10.7631 44 9.68145 44 8.53125C44 6.5127 42.1523 4.875 39.875 4.875H4.125ZM0 13.4062V29.25C0 31.9389 2.46641 34.125 5.5 34.125H38.5C41.5336 34.125 44 31.9389 44 29.25V13.4062L25.3 25.8375C23.3406 27.14 20.6594 27.14 18.7 25.8375L0 13.4062Z" fill="black"/>
</svg>
