<svg width="46" height="38" viewBox="0 0 46 38" fill="none" xmlns="http://www.w3.org/2000/svg">
<path d="M15.3859 29.4945C15.3859 29.643 15.1726 29.7617 14.9036 29.7617C14.5976 29.784 14.3843 29.6652 14.3843 29.4945C14.3843 29.3461 14.5976 29.2273 14.8665 29.2273C15.1448 29.2051 15.3859 29.3238 15.3859 29.4945ZM12.5016 29.1605C12.4367 29.309 12.6222 29.4797 12.9004 29.5242C13.1415 29.5984 13.4198 29.5242 13.4754 29.3758C13.531 29.2273 13.3548 29.0566 13.0766 28.9898C12.8355 28.9379 12.5665 29.0121 12.5016 29.1605ZM16.6008 29.0344C16.3319 29.0863 16.1464 29.2273 16.1742 29.398C16.202 29.5465 16.4431 29.643 16.7214 29.591C16.9903 29.5391 17.1758 29.398 17.148 29.2496C17.1202 29.1086 16.8698 29.0121 16.6008 29.0344ZM22.7032 0.59375C9.83992 0.59375 0 8.40898 0 18.7031C0 26.934 6.47339 33.9773 15.7198 36.4562C16.9069 36.627 17.3242 36.0406 17.3242 35.5582C17.3242 35.098 17.2964 32.5598 17.2964 31.0012C17.2964 31.0012 10.8044 32.1145 9.44113 28.7895C9.44113 28.7895 8.38387 26.6297 6.8629 26.073C6.8629 26.073 4.73911 24.9078 7.01129 24.9301C7.01129 24.9301 9.32056 25.0785 10.5911 26.8449C12.6222 29.7098 16.0258 28.8859 17.352 28.3961C17.5653 27.2086 18.1681 26.3848 18.8359 25.8949C13.6516 25.4348 8.42097 24.8336 8.42097 17.6938C8.42097 15.6527 9.12581 14.6285 10.6097 13.3223C10.3685 12.8398 9.58024 10.8508 10.8508 8.28281C12.7891 7.80039 17.25 10.2867 17.25 10.2867C19.1048 9.87109 21.0988 9.65586 23.0742 9.65586C25.0496 9.65586 27.0435 9.87109 28.8984 10.2867C28.8984 10.2867 33.3593 7.79297 35.2976 8.28281C36.5681 10.8582 35.7798 12.8398 35.5387 13.3223C37.0226 14.6359 37.9315 15.6602 37.9315 17.6938C37.9315 24.8559 32.469 25.4273 27.2847 25.8949C28.1379 26.4812 28.8613 27.5945 28.8613 29.3387C28.8613 31.8398 28.8335 34.9348 28.8335 35.5434C28.8335 36.0258 29.2601 36.6121 30.4379 36.4414C39.7121 33.9773 46 26.934 46 18.7031C46 8.40898 35.5665 0.59375 22.7032 0.59375ZM9.01452 26.1918C8.89395 26.266 8.92177 26.4367 9.07944 26.5777C9.22782 26.6965 9.44113 26.7484 9.56169 26.652C9.68226 26.5777 9.65444 26.407 9.49677 26.266C9.34839 26.1473 9.13508 26.0953 9.01452 26.1918ZM8.0129 25.5906C7.94798 25.6871 8.04073 25.8059 8.22621 25.8801C8.3746 25.9543 8.56008 25.932 8.625 25.8281C8.68992 25.7316 8.59718 25.6129 8.41169 25.5387C8.22621 25.4941 8.07782 25.5164 8.0129 25.5906ZM11.0177 28.2328C10.8694 28.3293 10.925 28.552 11.1383 28.693C11.3516 28.8637 11.6206 28.8859 11.7411 28.7672C11.8617 28.6707 11.806 28.448 11.6206 28.307C11.4165 28.1363 11.1383 28.1141 11.0177 28.2328ZM9.96048 27.1418C9.8121 27.216 9.8121 27.409 9.96048 27.5797C10.1089 27.7504 10.3593 27.8246 10.4798 27.7504C10.6282 27.6539 10.6282 27.4609 10.4798 27.2902C10.35 27.1195 10.1089 27.0453 9.96048 27.1418Z" fill="black"/>
</svg>
