<svg width="46" height="49" viewBox="0 0 46 49" fill="none" xmlns="http://www.w3.org/2000/svg">
<path d="M42.7143 3.0625H3.27545C1.4683 3.0625 0 4.4502 0 6.15371V42.8463C0 44.5498 1.4683 45.9375 3.27545 45.9375H42.7143C44.5214 45.9375 46 44.5498 46 42.8463V6.15371C46 4.4502 44.5214 3.0625 42.7143 3.0625ZM13.9027 39.8125H7.08482V19.3512H13.9129V39.8125H13.9027ZM10.4937 16.5566C8.3067 16.5566 6.54063 14.901 6.54063 12.8721C6.54063 10.8432 8.3067 9.1875 10.4937 9.1875C12.6705 9.1875 14.4469 10.8432 14.4469 12.8721C14.4469 14.9105 12.6808 16.5566 10.4937 16.5566ZM39.4594 39.8125H32.6415V29.8594C32.6415 27.4859 32.5902 24.433 29.0991 24.433C25.5464 24.433 25.0022 27.017 25.0022 29.6871V39.8125H18.1844V19.3512H24.725V22.1457H24.8174C25.7313 20.5379 27.9594 18.8439 31.2759 18.8439C38.1759 18.8439 39.4594 23.0836 39.4594 28.5961V39.8125Z" fill="black"/>
</svg>
