<svg width="50" height="50" viewBox="0 0 50 50" fill="none" xmlns="http://www.w3.org/2000/svg">
<g clip-path="url(#clip0_220_279)">
<path d="M48.6426 0.54676C49.6289 1.23035 50.1465 2.41199 49.961 3.59363L43.711 44.2186C43.5645 45.1659 42.9883 45.996 42.1485 46.4647C41.3086 46.9335 40.3028 46.9921 39.4141 46.621L27.7344 41.7675L21.045 49.0038C20.1758 49.9511 18.8086 50.2636 17.6075 49.7948C16.4063 49.3261 15.625 48.1639 15.625 46.8749V38.7108C15.625 38.3202 15.7715 37.9491 16.0352 37.6659L32.4024 19.8046C32.9688 19.1893 32.9493 18.2421 32.3633 17.6561C31.7774 17.0702 30.8301 17.0311 30.2149 17.5878L10.3516 35.2343L1.72856 30.9179C0.6934 30.4003 0.0293375 29.3651 4.05806e-05 28.2128C-0.0292563 27.0604 0.576213 25.9862 1.57231 25.41L45.3223 0.410041C46.3672 -0.185662 47.6563 -0.127068 48.6426 0.54676Z" fill="black"/>
</g>
<defs>
<clipPath id="clip0_220_279">
<rect width="50" height="50" fill="white"/>
</clipPath>
</defs>
</svg>
