<svg width="46" height="54" viewBox="0 0 46 54" fill="none" xmlns="http://www.w3.org/2000/svg">
<path d="M39.1103 10.241C34.808 5.81133 29.0786 3.375 22.9897 3.375C10.4219 3.375 0.195089 13.8797 0.195089 26.7891C0.195089 30.9129 1.24241 34.9418 3.23438 38.4961L0 50.625L12.0853 47.366C15.4121 49.2328 19.1598 50.2137 22.9795 50.2137H22.9897C35.5473 50.2137 46 39.709 46 26.7996C46 20.5453 43.4125 14.6707 39.1103 10.241ZM22.9897 46.2691C19.5808 46.2691 16.2437 45.3305 13.3379 43.5586L12.65 43.1367L5.48304 45.0668L7.39286 37.8844L6.94107 37.1461C5.04152 34.0453 4.04554 30.4699 4.04554 26.7891C4.04554 16.0629 12.5473 7.33008 23 7.33008C28.0621 7.33008 32.8161 9.35508 36.3893 13.0359C39.9625 16.7168 42.1598 21.6 42.1496 26.7996C42.1496 37.5363 33.4321 46.2691 22.9897 46.2691ZM33.3808 31.6934C32.8161 31.398 30.0129 29.9848 29.4893 29.7949C28.9656 29.5945 28.5857 29.4996 28.2058 30.0902C27.8259 30.6809 26.7375 31.9887 26.3987 32.3895C26.0701 32.7797 25.7313 32.8324 25.1665 32.5371C21.8192 30.818 19.6219 29.468 17.4143 25.5762C16.829 24.5426 17.9996 24.6164 19.0879 22.3805C19.2728 21.9902 19.1804 21.6527 19.0366 21.3574C18.8929 21.0621 17.7531 18.1828 17.2808 17.0121C16.8188 15.873 16.3464 16.0312 15.9973 16.0102C15.6688 15.9891 15.2888 15.9891 14.9089 15.9891C14.529 15.9891 13.9129 16.1367 13.3893 16.7168C12.8656 17.3074 11.3973 18.7207 11.3973 21.6C11.3973 24.4793 13.4406 27.2637 13.7179 27.6539C14.0054 28.0441 17.7326 33.9504 23.4518 36.4922C27.0661 38.0953 28.483 38.2324 30.2902 37.9582C31.3888 37.7895 33.658 36.5449 34.1304 35.1738C34.6027 33.8027 34.6027 32.632 34.4589 32.3895C34.3254 32.1258 33.9455 31.9781 33.3808 31.6934Z" fill="black"/>
</svg>
